<svg width="40" height="45" viewBox="0 0 40 45" fill="none" xmlns="http://www.w3.org/2000/svg">
<path d="M14.7942 18.2364V34.6292C14.7942 34.8949 14.7105 35.1131 14.5431 35.2838C14.3757 35.4546 14.1618 35.54 13.9013 35.54H12.1156C11.8552 35.54 11.6413 35.4546 11.4739 35.2838C11.3065 35.1131 11.2228 34.8949 11.2228 34.6292V18.2364C11.2228 17.9708 11.3065 17.7526 11.4739 17.5818C11.6413 17.411 11.8552 17.3257 12.1156 17.3257H13.9013C14.1618 17.3257 14.3757 17.411 14.5431 17.5818C14.7105 17.7526 14.7942 17.9708 14.7942 18.2364ZM21.9371 18.2364V34.6292C21.9371 34.8949 21.8533 35.1131 21.6859 35.2838C21.5185 35.4546 21.3046 35.54 21.0442 35.54H19.2585C18.9981 35.54 18.7842 35.4546 18.6167 35.2838C18.4493 35.1131 18.3656 34.8949 18.3656 34.6292V18.2364C18.3656 17.9708 18.4493 17.7526 18.6167 17.5818C18.7842 17.411 18.9981 17.3257 19.2585 17.3257H21.0442C21.3046 17.3257 21.5185 17.411 21.6859 17.5818C21.8533 17.7526 21.9371 17.9708 21.9371 18.2364ZM29.0799 18.2364V34.6292C29.0799 34.8949 28.9962 35.1131 28.8288 35.2838C28.6614 35.4546 28.4475 35.54 28.1871 35.54H26.4013C26.1409 35.54 25.927 35.4546 25.7596 35.2838C25.5922 35.1131 25.5085 34.8949 25.5085 34.6292V18.2364C25.5085 17.9708 25.5922 17.7526 25.7596 17.5818C25.927 17.411 26.1409 17.3257 26.4013 17.3257H28.1871C28.4475 17.3257 28.6614 17.411 28.8288 17.5818C28.9962 17.7526 29.0799 17.9708 29.0799 18.2364ZM32.6513 38.8413V11.8614H7.65134V38.8413C7.65134 39.2587 7.71645 39.6429 7.84665 39.9939C7.97686 40.3449 8.11172 40.6011 8.25123 40.7623C8.39074 40.9236 8.48839 41.0042 8.5442 41.0042H31.7585C31.8143 41.0042 31.9119 40.9236 32.0515 40.7623C32.191 40.6011 32.3258 40.3449 32.456 39.9939C32.5862 39.6429 32.6513 39.2587 32.6513 38.8413ZM13.9013 8.21852H26.4013L25.0621 4.88872C24.9318 4.71796 24.7737 4.61361 24.5877 4.57566H15.7429C15.5568 4.61361 15.3987 4.71796 15.2685 4.88872L13.9013 8.21852ZM39.7942 9.12923V10.9507C39.7942 11.2163 39.7105 11.4345 39.5431 11.6052C39.3757 11.776 39.1618 11.8614 38.9013 11.8614H36.2228V38.8413C36.2228 40.4161 35.7856 41.7774 34.9114 42.9253C34.0371 44.0732 32.9862 44.6471 31.7585 44.6471H8.5442C7.31652 44.6471 6.26555 44.0921 5.3913 42.9822C4.51704 41.8723 4.07991 40.5299 4.07991 38.9551V11.8614H1.40134C1.14092 11.8614 0.927011 11.776 0.7596 11.6052C0.592189 11.4345 0.508484 11.2163 0.508484 10.9507V9.12923C0.508484 8.86361 0.592189 8.64542 0.7596 8.47466C0.927011 8.3039 1.14092 8.21852 1.40134 8.21852H10.023L11.9761 3.46573C12.2551 2.76372 12.7574 2.16606 13.4828 1.67276C14.2083 1.17946 14.943 0.932804 15.6871 0.932804H24.6156C25.3597 0.932804 26.0944 1.17946 26.8199 1.67276C27.5453 2.16606 28.0475 2.76372 28.3266 3.46573L30.2797 8.21852H38.9013C39.1618 8.21852 39.3757 8.3039 39.5431 8.47466C39.7105 8.64542 39.7942 8.86361 39.7942 9.12923Z" fill="white"/>
</svg>
